<?xml version="1.0" standalone="no"?>
<!DOCTYPE svg PUBLIC "-//W3C//DTD SVG 20010904//EN"
 "http://www.w3.org/TR/2001/REC-SVG-20010904/DTD/svg10.dtd">
<svg version="1.0" xmlns="http://www.w3.org/2000/svg"
 width="430.000000pt" height="101.000000pt" viewBox="0 0 430.000000 101.000000"
 preserveAspectRatio="xMidYMid meet">

<g transform="translate(0.000000,101.000000) scale(0.100000,-0.100000)"
fill="#000000" stroke="none">
<path d="M4057 1004 c-14 -14 -7 -35 11 -32 9 2 17 10 17 17 0 16 -18 25 -28
15z"/>
<path d="M3240 870 c0 -109 2 -130 15 -130 11 0 15 12 15 50 l0 50 35 0 c32 0
37 -4 60 -50 18 -36 31 -50 46 -50 20 0 19 2 -9 51 l-29 51 23 23 c32 32 32
78 -1 110 -21 22 -33 25 -90 25 l-65 0 0 -130z m140 81 c25 -48 -1 -81 -66
-81 l-44 0 0 50 0 50 50 0 c38 0 52 -4 60 -19z"/>
<path d="M3470 857 c0 -69 3 -87 18 -100 21 -19 54 -22 83 -7 13 7 19 7 19 0
0 -5 7 -10 15 -10 12 0 15 18 15 100 0 82 -3 100 -15 100 -12 0 -15 -15 -15
-73 0 -80 -9 -97 -52 -97 -32 0 -36 12 -40 104 -2 37 -8 61 -15 64 -10 3 -13
-18 -13 -81z"/>
<path d="M3708 929 c-53 -30 -41 -81 22 -100 54 -16 71 -37 45 -55 -25 -18
-49 -18 -65 1 -14 17 -40 20 -40 6 0 -40 102 -57 133 -23 37 41 11 82 -61 97
-27 5 -33 11 -30 28 4 26 32 33 64 16 33 -17 44 -1 15 22 -25 21 -56 24 -83 8z"/>
<path d="M3886 919 c-45 -35 -26 -79 41 -94 44 -9 58 -28 38 -49 -21 -20 -49
-21 -69 -1 -16 17 -36 20 -36 6 0 -23 34 -41 75 -41 37 0 48 5 61 25 25 38 7
71 -48 86 -48 12 -62 27 -46 46 13 16 42 17 68 1 29 -18 39 1 11 23 -30 25
-62 24 -95 -2z"/>
<path d="M4057 933 c-4 -3 -7 -48 -7 -100 0 -76 3 -93 15 -93 12 0 15 18 15
100 0 92 -5 112 -23 93z"/>
<path d="M4148 918 c-20 -20 -21 -23 -5 -26 9 -2 24 4 33 12 27 28 74 16 74
-18 0 -17 -9 -24 -44 -34 -24 -6 -51 -19 -60 -27 -19 -19 -21 -56 -4 -73 15
-15 62 -16 88 -2 13 7 21 7 25 0 3 -5 12 -10 19 -10 20 0 9 171 -12 188 -26
20 -89 15 -114 -10z m102 -100 c0 -43 -50 -74 -77 -47 -17 17 -4 39 31 55 42
18 46 17 46 -8z"/>
<path d="M30 415 l0 -395 55 0 55 0 2 286 3 285 115 -283 116 -283 48 0 49 0
116 284 116 284 3 -287 2 -286 55 0 55 0 0 395 0 395 -69 0 -69 0 -26 -62
c-15 -35 -71 -171 -125 -303 -54 -132 -102 -240 -106 -240 -5 0 -64 135 -131
300 l-123 300 -70 3 -71 3 0 -396z"/>
<path d="M2260 680 l0 -70 -45 0 -45 0 0 -45 0 -45 45 0 45 0 0 -196 c0 -222
6 -248 69 -286 27 -17 51 -23 98 -23 34 0 64 3 68 7 4 3 3 27 0 51 -7 46 -7
46 -47 45 -70 -1 -73 7 -73 215 l0 182 58 3 57 3 0 44 0 45 -60 0 -60 0 0 70
0 70 -55 0 -55 0 0 -70z"/>
<path d="M1177 606 c-128 -36 -205 -163 -195 -322 11 -169 117 -274 277 -274
69 0 118 13 162 43 35 23 79 81 79 102 0 7 -22 17 -49 22 -48 9 -49 9 -75 -23
-44 -55 -138 -67 -207 -27 -33 20 -60 65 -69 115 l-7 38 210 0 210 0 -5 78
c-5 85 -22 128 -72 180 -64 68 -164 95 -259 68z m150 -106 c38 -23 60 -55 69
-98 l7 -32 -152 0 -151 0 0 24 c0 34 40 88 80 108 46 23 107 23 147 -2z"/>
<path d="M1787 610 c-58 -15 -93 -37 -124 -77 -23 -30 -28 -46 -28 -92 1 -99
44 -135 202 -172 112 -26 133 -39 133 -84 0 -18 -7 -41 -17 -50 -56 -56 -183
-42 -218 24 -13 25 -20 30 -40 26 -14 -3 -36 -7 -50 -10 -32 -7 -32 -30 0 -78
35 -51 94 -79 181 -85 157 -10 264 62 264 178 0 93 -60 140 -224 175 -91 20
-119 41 -114 87 4 44 43 70 106 70 54 0 97 -21 108 -54 5 -17 11 -19 57 -13
62 9 61 8 52 34 -10 34 -55 80 -96 102 -46 23 -138 32 -192 19z"/>
<path d="M2797 609 c-58 -14 -91 -34 -136 -85 -54 -62 -75 -132 -69 -233 10
-170 98 -268 250 -279 120 -8 207 38 257 139 94 189 8 420 -170 458 -57 13
-79 13 -132 0z m144 -112 c54 -35 74 -87 74 -187 -1 -147 -51 -206 -166 -198
-68 5 -93 23 -122 87 -22 50 -26 167 -7 216 36 93 144 134 221 82z"/>
</g>
</svg>
